<svg width="114" height="98" viewBox="0 0 114 98" fill="none" xmlns="http://www.w3.org/2000/svg">
<path d="M62 69.5L82.5 32H110.5C113 32 114.229 34.6965 113 37L82.5 95.5C81.2292 97.6965 77.7292 98.1965 76 95L62 69.5Z" fill="url(#paint0_linear_0_1)"/>
<path d="M51.4814 69.5L30.9814 32H2.98143C0.481426 32 -0.747787 34.6965 0.481426 37L30.9814 95.5C32.2522 97.6965 35.7522 98.1965 37.4814 95L51.4814 69.5Z" fill="url(#paint1_linear_0_1)"/>
<path d="M52.4917 2.78507L36 29.8786L56.6146 66.9848L77.2292 29.8786L60.1485 2.78507C57.5 -0.928467 55 -0.928282 52.4917 2.78507Z" fill="url(#paint2_linear_0_1)"/>
<defs>
<linearGradient id="paint0_linear_0_1" x1="116.729" y1="71.1965" x2="63.2292" y2="42.6965" gradientUnits="userSpaceOnUse">
<stop/>
<stop offset="1" stop-color="#545454"/>
</linearGradient>
<linearGradient id="paint1_linear_0_1" x1="26" y1="51" x2="53.5" y2="37" gradientUnits="userSpaceOnUse">
<stop stop-color="#545454"/>
<stop offset="1"/>
</linearGradient>
<linearGradient id="paint2_linear_0_1" x1="77.2292" y1="33.5281" x2="36" y2="33.5281" gradientUnits="userSpaceOnUse">
<stop stop-color="#2B2B2B"/>
<stop offset="1" stop-color="#545454"/>
</linearGradient>
</defs>
</svg>
